<?xml version="1.0" standalone="no"?>
<!DOCTYPE svg PUBLIC "-//W3C//DTD SVG 20010904//EN"
 "http://www.w3.org/TR/2001/REC-SVG-20010904/DTD/svg10.dtd">
<svg version="1.0" xmlns="http://www.w3.org/2000/svg"
 width="340.000000pt" height="270.000000pt" viewBox="0 0 340.000000 270.000000"
 preserveAspectRatio="xMidYMid meet">

<g transform="translate(0.000000,270.000000) scale(0.100000,-0.100000)"
fill="#000000" stroke="none">
<path d="M2640 2503 c0 -5 7 -17 15 -27 26 -34 19 -72 -19 -101 -19 -14 -42
-42 -51 -61 -21 -45 -7 -94 37 -126 l31 -22 -7 25 c-22 69 -20 79 23 123 50
51 64 91 46 133 -16 38 -76 83 -75 56z"/>
<path d="M2755 2440 c24 -46 18 -67 -29 -113 -54 -51 -66 -88 -42 -131 17 -31
53 -62 63 -53 2 3 0 14 -6 25 -20 37 -12 64 34 113 38 41 45 54 45 89 0 33 -6
48 -29 71 -39 38 -56 38 -36 -1z"/>
<path d="M300 2425 c0 -8 9 -15 19 -15 18 0 20 -9 23 -121 2 -67 1 -124 -2
-128 -3 -4 -13 -11 -23 -14 -36 -13 -11 -32 46 -35 52 -3 57 -1 57 18 0 13 -7
20 -20 20 -19 0 -20 7 -20 130 0 123 1 130 20 130 11 0 20 7 20 15 0 12 -13
15 -60 15 -47 0 -60 -3 -60 -15z"/>
<path d="M857 2363 c-15 -15 -5 -23 28 -23 l34 0 3 -112 c2 -93 6 -113 18
-113 12 0 16 20 18 113 l3 112 29 0 c20 0 30 5 30 15 0 12 -15 15 -78 15 -43
0 -82 -3 -85 -7z"/>
<path d="M1150 2261 c0 -86 3 -113 16 -125 22 -22 62 -31 93 -20 41 15 52 48
49 154 -3 81 -6 95 -20 98 -16 3 -18 -7 -18 -102 0 -94 -2 -106 -19 -116 -27
-14 -37 -13 -55 6 -12 12 -16 38 -16 115 0 81 -3 99 -15 99 -12 0 -15 -19 -15
-109z"/>
<path d="M1440 2245 c0 -77 4 -125 10 -125 6 0 13 0 18 0 8 0 9 5 11 60 1 33
5 40 21 40 11 0 26 -10 33 -22 8 -13 23 -37 33 -55 14 -22 23 -29 33 -24 11 7
8 18 -14 55 l-27 46 21 26 c21 27 27 69 13 90 -14 22 -51 34 -101 34 l-51 0 0
-125z m114 79 c9 -8 16 -20 16 -26 0 -22 -34 -48 -62 -48 -27 0 -28 2 -28 45
0 43 1 45 29 45 16 0 37 -7 45 -16z"/>
<path d="M1720 2246 c0 -105 2 -126 15 -126 12 0 15 18 16 98 l1 97 46 -97
c39 -83 49 -98 69 -98 l24 0 -3 123 c-3 100 -6 122 -18 122 -12 0 -15 -17 -15
-93 0 -50 -2 -92 -6 -92 -3 0 -24 42 -46 93 -31 68 -47 93 -62 95 -20 3 -21
-1 -21 -122z"/>
<path d="M2263 1968 c5 -143 22 -244 58 -355 l11 -33 349 0 349 0 21 73 22 73
50 12 c137 32 221 166 167 266 -18 35 -77 65 -141 73 -39 5 -49 10 -49 24 0
18 -17 19 -421 19 l-422 0 6 -152z m152 -119 c0 -160 -2 -186 -12 -160 -24 58
-53 187 -61 269 l-8 82 41 0 40 0 0 -191z m765 131 c25 -25 25 -56 1 -96 -16
-27 -76 -64 -85 -53 -2 2 -1 41 2 87 l5 82 28 0 c16 0 38 -9 49 -20z"/>
<path d="M913 2000 c-30 -12 -43 -41 -43 -94 0 -39 -3 -46 -20 -46 -17 0 -20
-7 -20 -40 0 -33 3 -40 20 -40 19 0 20 -7 20 -185 l0 -185 40 0 40 0 0 185 0
185 26 0 c23 0 25 3 22 38 -2 30 -7 38 -25 40 -19 3 -23 10 -23 37 0 29 4 34
28 37 24 3 27 7 27 38 0 33 -2 35 -35 37 -19 1 -45 -2 -57 -7z"/>
<path d="M1170 1998 c-26 -14 -37 -42 -39 -100 -1 -31 -5 -38 -21 -38 -17 0
-20 -7 -20 -40 0 -33 3 -40 20 -40 19 0 20 -8 22 -182 l3 -183 38 -3 37 -3 0
185 0 186 25 0 c23 0 25 4 25 40 0 36 -2 40 -26 40 -23 0 -25 3 -22 33 2 27 8
33 31 35 26 3 28 6 25 40 -3 34 -5 37 -38 40 -19 1 -46 -3 -60 -10z"/>
<path d="M273 1850 c-13 -5 -26 -24 -32 -47 -15 -51 -3 -347 15 -371 10 -13
28 -17 81 -17 l68 0 3 38 3 37 -45 0 -46 0 0 145 0 145 46 0 45 0 -3 38 -3 37
-55 2 c-30 1 -65 -2 -77 -7z"/>
<path d="M539 1841 c-24 -19 -24 -22 -24 -206 l0 -187 25 -20 c20 -17 36 -19
89 -16 99 6 101 11 101 228 l0 179 -26 20 c-36 29 -131 29 -165 2z m106 -206
l0 -140 -25 0 -25 0 -3 129 c-1 72 0 136 3 144 3 7 15 12 27 10 23 -3 23 -5
23 -143z"/>
<path d="M1400 1853 c-36 -13 -40 -34 -40 -218 0 -226 -3 -220 112 -220 l83 0
3 38 3 37 -60 0 -61 0 0 50 0 50 64 0 c42 0 65 4 69 13 9 23 6 161 -4 200 -7
26 -18 41 -35 47 -27 11 -109 12 -134 3z m95 -106 c4 -19 5 -47 3 -63 -2 -23
-8 -30 -30 -32 l-28 -3 0 65 c0 63 1 66 25 66 19 0 25 -6 30 -33z"/>
<path d="M1723 1850 c-14 -6 -26 -24 -33 -50 -14 -53 -8 -327 8 -357 14 -26
55 -36 132 -31 l55 3 3 38 3 37 -60 0 -60 0 -7 35 c-11 58 -3 65 71 65 l65 0
0 113 c-1 141 -6 150 -93 154 -34 2 -72 -1 -84 -7z m97 -135 c0 -64 0 -65 -27
-65 -30 0 -29 -2 -24 118 1 6 12 12 26 12 24 0 25 -2 25 -65z"/>
<path d="M2122 1540 c9 -6 78 -32 153 -60 l137 -50 270 0 271 0 151 56 c83 31
153 58 155 60 2 2 -256 4 -575 4 -377 -1 -573 -4 -562 -10z"/>
<path d="M275 1202 c-11 -2 -30 -13 -42 -25 l-23 -20 0 -433 c0 -410 1 -433
19 -455 l19 -24 592 0 592 0 19 24 c18 22 19 45 19 456 0 400 -1 434 -18 455
l-18 22 -569 2 c-314 1 -579 0 -590 -2z m855 -81 c12 -24 4 -48 -21 -62 -40
-21 -79 37 -47 69 18 18 56 14 68 -7z m130 0 c18 -35 -18 -79 -54 -65 -22 8
-31 51 -16 69 18 21 57 19 70 -4z m130 0 c20 -39 -22 -82 -60 -61 -22 12 -27
49 -8 68 18 18 56 14 68 -7z m40 -454 c0 -259 -3 -347 -12 -360 -12 -16 -56
-17 -583 -15 l-570 3 -3 358 -2 357 585 0 585 0 0 -343z"/>
<path d="M895 812 c-9 -6 -155 -296 -155 -307 0 -3 10 -5 23 -5 19 0 34 22 96
149 65 130 78 171 53 171 -4 0 -11 -4 -17 -8z"/>
<path d="M585 707 c-86 -39 -95 -45 -95 -61 0 -13 152 -86 178 -86 31 0 3 37
-48 62 l-55 27 56 26 c47 21 56 29 52 45 -7 24 -3 25 -88 -13z"/>
<path d="M1010 720 c0 -16 12 -27 50 -43 27 -12 50 -25 50 -28 0 -4 -22 -16
-50 -27 -37 -16 -50 -26 -50 -41 0 -28 6 -27 97 13 121 53 113 67 -84 143 -8
3 -13 -3 -13 -17z"/>
<path d="M2560 1029 c-34 -12 -50 -41 -57 -98 -11 -93 31 -156 98 -149 89 8
111 200 28 243 -32 17 -34 17 -69 4z m76 -61 c4 -13 7 -45 7 -71 -1 -76 -52
-115 -87 -65 -19 27 -21 127 -3 150 27 34 70 27 83 -14z"/>
<path d="M1675 1019 c-4 -6 2 -13 14 -16 19 -5 21 -12 21 -98 0 -86 -2 -93
-21 -98 -37 -10 -10 -27 42 -27 37 0 49 4 49 15 0 8 -9 15 -20 15 -19 0 -20 7
-20 95 0 88 1 95 20 95 11 0 20 7 20 15 0 11 -12 15 -49 15 -28 0 -53 -5 -56
-11z"/>
<path d="M1930 905 c0 -104 2 -125 15 -125 12 0 15 18 16 103 l1 102 49 -102
c38 -81 53 -103 69 -103 19 0 20 6 20 125 0 104 -2 125 -15 125 -12 0 -15 -17
-15 -96 0 -52 -4 -93 -8 -90 -4 2 -26 45 -47 95 -33 76 -44 91 -62 91 -23 0
-23 -2 -23 -125z"/>
<path d="M2220 1015 c0 -10 11 -15 35 -15 l35 0 0 -110 c0 -91 3 -110 15 -110
12 0 15 19 15 110 l0 110 35 0 c24 0 35 5 35 15 0 12 -16 15 -85 15 -69 0 -85
-3 -85 -15z"/>
<path d="M2786 732 c-3 -4 -6 -38 -8 -75 -1 -37 -5 -67 -8 -67 -3 0 -14 7 -24
15 -25 19 -99 19 -134 1 -57 -29 -64 -46 -63 -152 0 -96 1 -98 33 -131 29 -30
37 -33 94 -33 42 0 65 5 74 15 16 19 30 19 30 -1 0 -11 8 -14 28 -12 l27 3 3
200 c1 110 0 210 -3 223 -5 21 -38 31 -49 14z m-48 -201 c49 -42 53 -98 11
-146 -24 -27 -39 -35 -66 -35 -65 0 -73 11 -73 100 0 70 2 81 22 94 33 23 69
19 106 -13z"/>
<path d="M1727 585 c-60 -46 -67 -60 -67 -137 0 -70 6 -82 64 -127 37 -29 44
-31 128 -31 73 0 90 3 95 16 10 28 -25 44 -95 44 -53 0 -69 4 -98 26 -30 23
-34 32 -34 73 0 40 5 52 31 77 27 26 39 30 112 34 70 4 82 8 85 24 6 28 -15
36 -99 36 -72 0 -79 -2 -122 -35z"/>
<path d="M2174 610 c-11 -4 -33 -23 -48 -41 -27 -31 -28 -36 -24 -127 3 -93 3
-95 36 -122 59 -49 168 -46 222 5 29 28 30 31 30 132 l0 103 -42 30 c-34 25
-50 30 -97 29 -31 0 -65 -4 -77 -9z m134 -66 c19 -13 22 -24 22 -86 0 -90 -14
-108 -79 -108 -26 0 -56 7 -69 16 -19 13 -22 24 -22 84 0 62 2 70 26 89 32 25
90 28 122 5z"/>
<path d="M3040 595 c-19 -14 -37 -31 -42 -37 -4 -7 -8 -57 -8 -110 0 -97 0
-97 33 -127 38 -37 73 -45 167 -39 78 6 101 18 84 46 -9 14 -29 18 -100 20
-64 2 -93 7 -106 19 -39 35 -23 42 95 45 l112 3 3 63 c3 62 2 64 -36 103 -38
37 -42 39 -104 39 -53 0 -70 -4 -98 -25z m157 -57 c13 -12 23 -32 23 -45 0
-22 -3 -23 -85 -23 l-85 0 0 29 c0 57 99 84 147 39z"/>
</g>
</svg>
